<svg xmlns="http://www.w3.org/2000/svg" version="1.0" width="190px" height="60px" viewBox="0 0 1810.000000 601.000000" preserveAspectRatio="xMidYMid meet">
    <g transform="translate(0.000000,601.000000) scale(0.100000,-0.100000)" fill="#00000" stroke="none">
    <path d="M3365 5794 c-206 -13 -458 -58 -655 -116 -174 -51 -184 -58 -275 -185 -118 -165 -199 -298 -291 -478 -82 -160 -201 -442 -190 -452 3 -3 47 15 98 40 325 159 704 263 1082 298 162 15 520 7 676 -15 280 -40 543 -112 779 -212 597 -254 1048 -782 1171 -1369 16 -80 23 -162 30 -410 14 -451 29 -550 95 -645 55 -79 153 -102 251 -56 89 41 167 161 214 326 52 185 50 623 -5 945 -88 519 -306 972 -658 1366 -487 545 -1064 859 -1737 944 -122 15 -465 27 -585 19z"/>
    <path d="M2151 5425 c-215 -127 -393 -267 -596 -470 -173 -172 -251 -267 -373 -450 -213 -319 -353 -676 -407 -1036 -8 -54 -15 -102 -15 -106 0 -4 27 47 59 112 141 285 355 546 629 765 l93 75 60 140 c140 326 334 638 581 933 43 50 75 92 70 92 -4 0 -49 -25 -101 -55z"/>
    <path d="M6830 4890 l0 -119 128 -3 127 -3 3 -657 2 -658 125 0 125 0 2 658 3 657 123 3 122 3 0 119 0 120 -380 0 -380 0 0 -120z"/>
    <path d="M7710 4230 l0 -780 305 0 305 0 0 125 0 125 -180 0 -180 0 0 188 0 188 180 93 180 92 0 140 0 139 -180 -90 -180 -90 0 205 0 205 180 0 180 0 0 120 0 120 -305 0 -305 0 0 -780z"/>
    <path d="M8584 4991 c-47 -21 -77 -58 -93 -116 -9 -29 -11 -210 -9 -665 l3 -625 23 -40 c13 -22 39 -52 59 -65 36 -24 41 -25 250 -28 203 -3 217 -2 259 19 28 13 56 37 72 62 l27 40 3 239 3 239 -130 -68 -131 -68 0 -107 0 -108 -95 0 -95 0 2 533 3 532 93 3 92 3 0 -151 c0 -82 2 -150 5 -150 3 0 61 28 130 62 l125 63 0 135 c0 109 -4 143 -19 175 -42 92 -80 104 -336 104 -174 1 -205 -2 -241 -18z"/>
    <path d="M9370 4230 l0 -780 125 0 125 0 2 658 3 657 95 0 95 0 3 -657 2 -658 125 0 125 0 0 696 c0 513 -3 707 -12 737 -16 53 -64 102 -113 116 -52 14 -203 14 -244 0 -19 -7 -40 -26 -56 -52 l-25 -42 0 53 0 52 -125 0 -125 0 0 -780z"/>
    <path d="M10364 4991 c-47 -22 -80 -59 -95 -110 -7 -24 -9 -247 -7 -672 l3 -635 27 -41 c16 -25 44 -49 72 -63 43 -20 56 -21 259 -18 208 3 214 4 250 28 20 13 46 43 59 65 l23 40 3 625 c3 681 3 687 -52 745 -45 48 -86 55 -306 55 -168 0 -201 -3 -236 -19z m336 -756 l0 -535 -95 0 -95 0 0 528 c0 291 3 532 7 535 3 4 46 7 95 7 l88 0 0 -535z"/>
    <path d="M11150 4230 l0 -780 300 0 300 0 0 125 0 125 -175 0 -175 0 0 655 0 655 -125 0 -125 0 0 -780z"/>
    <path d="M11984 4999 c-35 -10 -78 -49 -102 -94 -15 -27 -17 -94 -20 -639 -3 -654 -1 -692 46 -748 51 -60 84 -68 305 -68 248 0 285 12 328 105 17 37 19 80 19 678 0 607 -1 640 -19 675 -24 47 -56 76 -100 91 -41 13 -411 14 -457 0z m324 -766 l2 -533 -95 0 -95 0 0 535 0 536 93 -3 92 -3 3 -532z"/>
    <path d="M12865 4995 c-49 -17 -89 -63 -104 -118 -9 -30 -11 -218 -9 -667 l3 -625 23 -40 c13 -22 39 -52 59 -65 36 -25 37 -25 325 -28 l288 -3 0 500 c0 276 -2 501 -5 501 -3 0 -84 -39 -180 -87 l-175 -88 0 -137 c0 -76 3 -138 8 -138 4 0 26 11 50 25 l42 24 0 -175 0 -174 -90 0 -90 0 0 535 0 535 90 0 90 0 0 -160 c0 -88 2 -160 5 -160 3 0 61 28 130 62 l125 63 0 143 c0 187 -18 233 -105 273 -35 16 -67 19 -240 18 -146 0 -211 -4 -240 -14z"/>
    <path d="M13640 4230 l0 -780 130 0 130 0 0 780 0 780 -130 0 -130 0 0 -780z"/>
    <path d="M14195 4991 c-48 -22 -69 -44 -90 -94 -13 -31 -15 -130 -15 -742 l0 -705 125 0 125 0 2 283 3 282 90 47 c50 26 93 47 98 48 4 0 7 -148 7 -330 l0 -330 125 0 125 0 0 696 c0 513 -3 707 -12 737 -16 53 -64 102 -113 116 -23 6 -123 11 -235 11 -168 0 -201 -3 -235 -19z m343 -413 l2 -188 -90 -45 c-49 -25 -94 -45 -100 -45 -11 0 -15 452 -3 464 4 4 48 5 98 4 l90 -3 3 -187z"/>
    <path d="M15540 4230 l0 -780 275 0 c225 0 282 3 312 15 50 21 72 42 94 90 17 37 19 80 19 678 0 606 -1 640 -19 675 -23 46 -46 67 -94 87 -30 12 -87 15 -312 15 l-275 0 0 -780z m448 3 l2 -533 -95 0 -95 0 0 535 0 536 93 -3 92 -3 3 -532z"/>
    <path d="M16430 4230 l0 -780 310 0 310 0 0 125 0 125 -180 0 -180 0 0 190 0 190 180 90 180 90 0 140 0 140 -180 -90 -180 -90 0 205 0 205 180 0 180 0 0 120 0 120 -310 0 -310 0 0 -780z"/>
    <path d="M3010 4369 c-211 -15 -441 -53 -675 -110 -133 -33 -388 -116 -462 -152 -46 -21 -48 -24 -60 -82 -85 -424 -82 -996 8 -1455 83 -428 232 -816 437 -1145 145 -232 278 -401 447 -570 430 -430 942 -629 1502 -586 335 26 588 116 887 316 450 300 809 712 1033 1182 59 125 122 291 153 407 l19 71 -22 -29 c-333 -443 -589 -621 -810 -563 -152 40 -286 175 -401 405 l-37 73 -23 -18 c-413 -322 -841 -600 -1096 -714 -235 -104 -447 -158 -660 -166 -129 -5 -154 -3 -225 16 -129 36 -207 83 -316 191 -277 273 -403 672 -323 1020 92 405 393 681 934 858 414 136 967 236 1439 260 l139 7 -21 50 c-65 150 -184 290 -335 393 -382 261 -936 385 -1532 341z m702 -3275 c67 -22 128 -95 128 -155 0 -17 -7 -19 -69 -19 -64 0 -69 2 -75 24 -8 33 -68 60 -118 53 -116 -16 -154 -183 -63 -274 27 -27 41 -33 74 -33 54 0 99 24 107 55 6 24 10 25 75 25 79 0 82 -5 50 -75 -37 -82 -110 -120 -231 -120 -85 0 -134 20 -190 77 -69 69 -95 193 -61 292 16 45 81 120 124 142 63 33 159 36 249 8z m560 -11 c39 -23 66 -59 74 -100 l7 -33 -72 0 c-56 0 -71 3 -71 15 0 22 -33 35 -90 35 -38 0 -52 -4 -57 -16 -14 -38 9 -52 157 -94 101 -30 150 -76 150 -143 0 -61 -15 -91 -59 -120 -56 -37 -97 -47 -185 -47 -116 1 -187 37 -215 113 -21 54 -17 57 59 57 42 0 70 -4 70 -10 0 -6 11 -22 25 -35 19 -20 34 -25 75 -25 64 0 90 13 90 45 0 32 -29 50 -115 71 -133 32 -190 74 -202 148 -12 78 68 155 172 166 68 7 149 -5 187 -27z m287 24 c6 -8 51 -83 101 -167 l89 -153 3 164 3 164 58 3 57 3 0 -276 0 -275 -60 0 c-69 0 -54 -17 -181 200 l-74 125 -3 -157 -3 -158 -64 0 -65 0 0 270 0 270 64 0 c41 0 67 -5 75 -13z"/>
    <path d="M1334 3809 c-143 -101 -313 -263 -415 -397 -67 -88 -143 -246 -170 -350 -20 -80 -20 -93 -10 -268 33 -541 178 -975 472 -1411 260 -385 684 -759 1096 -966 153 -78 154 -77 58 26 -534 566 -871 1209 -994 1892 -44 246 -55 389 -55 685 -1 306 12 450 59 696 14 70 23 129 21 131 -1 2 -29 -16 -62 -38z"/>
    <path d="M4850 3343 c-785 -177 -1248 -370 -1476 -616 -78 -84 -113 -154 -127 -252 -22 -155 26 -292 143 -405 188 -183 412 -211 760 -93 208 70 448 205 577 326 122 114 190 234 229 403 24 100 26 420 5 562 -16 104 -8 98 -111 75z"/>
    <path d="M15400 3211 c-77 -25 -137 -79 -169 -151 l-20 -45 77 -3 c52 -2 78 1 81 9 18 55 87 62 235 24 209 -54 338 -19 390 107 28 65 25 68 -58 68 -65 0 -74 -2 -79 -20 -3 -11 -22 -27 -43 -36 -37 -16 -43 -15 -151 15 -119 33 -221 46 -263 32z"/>
    <path d="M7088 2914 c-55 -17 -118 -83 -136 -142 -9 -29 -12 -273 -12 -916 l0 -876 160 0 160 0 0 353 0 352 115 58 c63 31 117 57 120 57 3 0 5 -184 5 -410 l0 -410 155 0 155 0 0 876 c0 643 -3 887 -12 916 -18 62 -80 125 -141 143 -71 21 -500 20 -569 -1z m412 -529 l0 -235 -120 -60 -120 -60 0 295 0 295 120 0 120 0 0 -235z"/>
    <path d="M8050 2062 c0 -944 -1 -924 55 -999 15 -19 51 -46 79 -59 49 -23 59 -24 304 -24 271 0 289 3 358 55 17 13 42 46 55 72 l24 48 3 888 3 887 -161 0 -160 0 0 -820 0 -820 -120 0 -120 0 0 820 0 820 -160 0 -160 0 0 -868z"/>
    <path d="M9070 2775 l0 -155 155 0 155 0 0 -820 0 -820 160 0 160 0 0 820 0 820 160 0 160 0 0 155 0 155 -475 0 -475 0 0 -155z"/>
    <path d="M10306 2915 c-61 -22 -88 -47 -121 -110 l-30 -59 0 -790 c0 -853 -2 -820 53 -895 14 -18 48 -44 76 -57 50 -23 58 -24 306 -24 247 0 257 1 305 24 63 29 100 72 120 138 22 74 23 1549 1 1622 -19 62 -57 111 -109 139 -40 21 -54 22 -302 24 -206 2 -268 0 -299 -12z m404 -960 l0 -665 -120 0 -120 0 0 665 0 665 120 0 120 0 0 -665z"/>
    <path d="M11419 2916 c-69 -24 -120 -78 -139 -146 -6 -22 -10 -368 -10 -912 l0 -878 155 0 155 0 0 820 0 820 120 0 120 0 0 -820 0 -820 160 0 160 0 0 820 0 820 115 0 115 0 0 -820 0 -820 160 0 160 0 -2 893 -3 892 -22 41 c-32 60 -83 100 -145 114 -34 7 -123 10 -245 8 -222 -4 -229 -6 -275 -98 -21 -41 -27 -49 -28 -31 0 39 -40 92 -84 112 -36 16 -67 19 -236 18 -133 0 -206 -4 -231 -13z"/>
    <path d="M13081 2915 c-51 -16 -94 -54 -124 -110 l-22 -40 -3 -892 -2 -893 160 0 160 0 0 353 0 352 115 58 c63 31 117 57 120 57 3 0 5 -184 5 -410 l0 -410 155 0 155 0 0 876 c0 643 -3 887 -12 916 -18 62 -80 125 -141 143 -69 20 -500 21 -566 0z m409 -530 l0 -235 -120 -60 -120 -60 0 295 0 295 120 0 120 0 0 -235z"/>
    <path d="M14196 2915 c-57 -20 -87 -45 -121 -100 l-30 -48 0 -811 0 -811 22 -42 c27 -51 82 -96 132 -112 21 -6 80 -11 131 -11 105 0 103 4 45 -85 -19 -31 -35 -59 -35 -64 0 -14 28 -21 85 -21 43 0 56 -4 65 -19 39 -74 -45 -115 -155 -76 -22 8 -41 15 -42 15 -4 0 -25 -72 -21 -74 19 -17 116 -36 177 -36 61 0 85 5 121 24 72 37 99 111 65 176 -20 39 -63 60 -125 60 -27 0 -50 3 -50 6 0 3 12 25 26 50 l26 44 111 0 c88 0 120 4 152 19 54 26 93 65 119 120 19 43 21 66 24 324 3 200 1 277 -8 277 -6 0 -80 -36 -165 -81 l-155 -81 0 -134 0 -134 -115 0 -115 0 0 665 0 665 115 0 115 0 0 -185 c0 -102 2 -185 5 -185 3 0 78 36 166 81 l161 80 -4 167 c-3 142 -7 174 -24 212 -29 64 -76 107 -136 125 -71 21 -504 21 -562 0z"/>
    <path d="M15320 2921 c-50 -16 -90 -42 -115 -76 -56 -72 -55 -55 -55 -997 l0 -868 160 0 160 0 0 353 0 352 115 58 c63 31 117 57 120 57 3 0 5 -184 5 -410 l0 -410 160 0 160 0 0 855 c0 565 -4 871 -11 904 -15 70 -59 136 -111 163 -41 22 -53 23 -303 25 -143 1 -271 -2 -285 -6z m390 -536 l0 -235 -120 -60 -120 -60 0 295 0 295 120 0 120 0 0 -235z"/>
    <path d="M16416 2915 c-61 -22 -88 -47 -121 -110 l-30 -59 0 -790 c0 -853 -2 -820 53 -895 14 -18 48 -44 76 -57 50 -23 58 -24 306 -24 248 0 256 1 306 24 28 13 64 40 79 59 56 74 55 65 55 891 0 525 -4 773 -11 801 -17 59 -65 122 -112 148 -40 21 -54 22 -302 24 -206 2 -268 0 -299 -12z m404 -960 l0 -665 -120 0 -120 0 0 665 0 665 120 0 120 0 0 -665z"/>
    </g>
</svg>